<svg width="12" height="12" viewBox="0 0 12 12" fill="none" xmlns="http://www.w3.org/2000/svg">
<path d="M5.99996 0C6.90604 0.000523657 7.80023 0.206253 8.61544 0.601749C9.43064 0.997246 10.1457 1.57224 10.7069 2.28358C11.2681 2.99491 11.661 3.82412 11.8559 4.70898C12.0509 5.59383 12.0429 6.51135 11.8326 7.39268C11.6223 8.27401 11.2151 9.09626 10.6416 9.79773C10.068 10.4992 9.3431 11.0617 8.52113 11.4429C7.69917 11.8242 6.80154 12.0143 5.89559 11.9991C4.98964 11.9838 4.09891 11.7636 3.29023 11.3549L3.19948 11.3062L0.465747 11.9887C0.413136 12.0019 0.358281 12.0036 0.304967 11.9935C0.251653 11.9835 0.20115 11.962 0.156943 11.9306C0.112736 11.8991 0.0758777 11.8585 0.0489116 11.8114C0.0219455 11.7643 0.00551355 11.712 0.000749941 11.6579V11.5964L0.01125 11.5342L0.693746 8.8012L0.646496 8.7112C0.303286 8.03557 0.0920169 7.30071 0.0239999 6.54596L0.00524995 6.25946L0 5.99996C0 4.40867 0.632137 2.88256 1.75735 1.75735C2.88256 0.632137 4.40867 0 5.99996 0ZM6.37496 6.74996H4.12498L4.05748 6.75596C3.97101 6.77162 3.8928 6.81713 3.83647 6.88457C3.78015 6.95201 3.74929 7.03709 3.74929 7.12496C3.74929 7.21282 3.78015 7.2979 3.83647 7.36534C3.8928 7.43278 3.97101 7.4783 4.05748 7.49396L4.12498 7.49996H6.37496L6.44246 7.49396C6.52892 7.4783 6.60714 7.43278 6.66347 7.36534C6.71979 7.2979 6.75065 7.21282 6.75065 7.12496C6.75065 7.03709 6.71979 6.95201 6.66347 6.88457C6.60714 6.81713 6.52892 6.77162 6.44246 6.75596L6.37496 6.74996ZM7.87495 4.49997H4.12498L4.05748 4.50597C3.97101 4.52163 3.8928 4.56715 3.83647 4.63459C3.78015 4.70203 3.74929 4.7871 3.74929 4.87497C3.74929 4.96284 3.78015 5.04791 3.83647 5.11536C3.8928 5.18279 3.97101 5.22831 4.05748 5.24397L4.12498 5.24997H7.87495L7.94245 5.24397C8.02891 5.22831 8.10713 5.18279 8.16346 5.11536C8.21978 5.04791 8.25064 4.96284 8.25064 4.87497C8.25064 4.7871 8.21978 4.70203 8.16346 4.63459C8.10713 4.56715 8.02891 4.52163 7.94245 4.50597L7.87495 4.49997Z" fill="#1D201F"/>
<path d="M7.87495 4.49997H4.12498L4.05748 4.50597C3.97101 4.52163 3.8928 4.56715 3.83647 4.63459C3.78015 4.70203 3.74929 4.7871 3.74929 4.87497C3.74929 4.96284 3.78015 5.04791 3.83647 5.11536C3.8928 5.18279 3.97101 5.22831 4.05748 5.24397L4.12498 5.24997H7.87495L7.94245 5.24397C8.02891 5.22831 8.10713 5.18279 8.16346 5.11536C8.21978 5.04791 8.25064 4.96284 8.25064 4.87497C8.25064 4.7871 8.21978 4.70203 8.16346 4.63459C8.10713 4.56715 8.02891 4.52163 7.94245 4.50597L7.87495 4.49997Z" fill="#1D201F"/>
<path d="M6.37496 6.74996H4.12498L4.05748 6.75596C3.97101 6.77162 3.8928 6.81713 3.83647 6.88457C3.78015 6.95201 3.74929 7.03709 3.74929 7.12496C3.74929 7.21282 3.78015 7.2979 3.83647 7.36534C3.8928 7.43278 3.97101 7.4783 4.05748 7.49396L4.12498 7.49996H6.37496L6.44246 7.49396C6.52892 7.4783 6.60714 7.43278 6.66347 7.36534C6.71979 7.2979 6.75065 7.21282 6.75065 7.12496C6.75065 7.03709 6.71979 6.95201 6.66347 6.88457C6.60714 6.81713 6.52892 6.77162 6.44246 6.75596L6.37496 6.74996Z" fill="#1D201F"/>
</svg>
