<svg width="100%" height="100%" viewBox="0 0 1920 377" fill="none" xmlns="http://www.w3.org/2000/svg" preserveAspectRatio="xMidYMid meet">
<path fill-rule="evenodd" clip-rule="evenodd" d="M1179.95 3.01374C1176.94 4.67357 1173.27 7.15356 1171.8 8.52579C1169.99 10.2161 1168.09 10.8242 1165.94 10.4111C1163.64 9.96995 1162.35 10.4659 1161.31 12.1879C1160.52 13.5017 1157.3 15.9 1154.14 17.5184C1150.99 19.1356 1147.82 21.5571 1147.1 22.8989C1146.12 24.7476 1144.56 25.3375 1140.66 25.3375C1136.81 25.3375 1135.14 25.959 1133.98 27.8223C1133.12 29.1885 1131.91 29.9843 1131.27 29.5906C1129.25 28.3427 1121.56 30.3901 1121.56 32.1754C1121.56 33.1065 1120.82 33.8682 1119.91 33.8682C1119.01 33.8682 1116.78 35.2477 1114.96 36.9344C1113.15 38.621 1111.15 39.6862 1110.53 39.2998C1109.9 38.9147 1109.39 39.111 1109.39 39.7374C1109.39 40.3638 1107.62 41.2948 1105.44 41.8079C1103.27 42.3197 1101.21 42.8084 1100.88 42.8925C1100.55 42.9766 1099.57 43.4896 1098.72 44.0307C1097.87 44.573 1095.66 44.6852 1093.82 44.2781C1090.89 43.6347 1088.6 42.1211 1081.72 36.2836C1080.87 35.5621 1077.83 35.2819 1074.8 35.6463C1071.82 36.0046 1069.07 35.7693 1068.67 35.1247C1068.01 34.0486 1065.39 34.8858 1056.15 39.1317C1054.63 39.83 1050.25 40.5002 1046.42 40.6197C1037.58 40.8975 1038.02 40.7501 1037.27 43.6176C1036.89 45.0983 1035.52 46.1269 1033.79 46.239C1028.35 46.5887 1023.63 45.8112 1022.7 44.4134C1022.05 43.4275 1021.39 43.6529 1020.5 45.1665C1019.8 46.3535 1018.69 46.9921 1018.04 46.5851C1017.38 46.178 1016.18 46.3121 1015.37 46.8837C1012.77 48.7275 1004.78 47.0238 1004.78 44.6242C1004.78 43.9271 1003.89 43.6993 1002.8 44.1173C1001.72 44.5365 1000.08 44.2586 999.17 43.5031C998.261 42.7463 996.173 42.4647 994.532 42.8767C992.332 43.4299 991.079 42.9583 989.766 41.0803C988.28 38.9537 987.561 38.76 985.419 39.9092C983.486 40.9451 982.932 40.9329 983.175 39.8616C983.351 39.0793 982.724 38.158 981.782 37.8155C980.584 37.3792 980.301 37.8033 980.846 39.2255C981.947 42.0991 976.782 44.0417 967.074 44.4061C951.877 44.9752 941.381 46.0489 939.111 47.2651C935.406 49.2528 932.41 48.6934 929.365 45.4456C926.323 42.2015 923.164 41.1461 925.716 44.2269C926.977 45.7491 926.82 46.055 924.778 46.055C923.43 46.055 922.023 46.8495 921.651 47.8208C921.167 49.0834 919.369 49.4916 915.333 49.254C910.634 48.9761 909.182 48.2705 906.652 45.0313L903.615 41.1425L900.188 44.818C898.304 46.8386 895.945 48.4923 894.948 48.4923C893.949 48.4923 892.818 49.3149 892.432 50.3203C892.048 51.3257 890.571 52.1483 889.153 52.1483C887.733 52.1483 885.619 53.328 884.453 54.771C882.616 57.0438 881.033 57.4045 872.551 57.4837C866.01 57.5446 862.112 57.0304 860.79 55.9311C859.291 54.6844 858.408 54.6247 857.137 55.6813C855.945 56.6721 854.513 56.7147 852.188 55.83C849.606 54.8453 849.088 54.0483 849.725 52.035C850.372 49.995 850.085 49.5843 848.287 49.9755C847.051 50.2448 846.178 51.1186 846.345 51.9156C846.513 52.7138 846.101 53.367 845.432 53.367C844.763 53.367 844.216 52.882 844.216 52.2909C844.216 50.8261 838.24 49.7732 837.425 51.093C836.386 52.7772 824.461 52.2982 820.885 50.43C818.062 48.953 817.534 48.9664 816.938 50.5226C815.989 52.999 811.313 52.085 809.672 49.1017C808.935 47.7611 808.209 46.4498 808.059 46.189C807.91 45.927 805.507 45.5833 802.719 45.4261C799.536 45.247 797.239 44.4037 796.545 43.1606C795.171 40.7025 791.089 40.6306 785.515 42.9632C781.628 44.5901 781.085 44.5548 779.285 42.5622C778.201 41.3618 777.3 39.8738 777.283 39.256C777.267 38.6393 775.351 37.1854 773.025 36.0265C769.432 34.235 768.798 34.1899 768.798 35.7218C768.798 37.7265 767.774 37.9849 761.324 37.6022C758.885 37.4584 756.527 37.9301 756.083 38.6503C754.618 41.0231 750.968 40.0189 749.525 36.8466C748.747 35.1332 747.57 34.0644 746.911 34.4727C746.227 34.8955 746.024 34.402 746.438 33.3222C747.338 30.9738 747.069 30.9763 741.341 33.3746C737.092 35.1527 736.579 35.1527 735.281 33.3746C733.208 30.5339 730.988 30.9677 725.843 35.216L721.259 39.0013L719.037 36.4347C716.429 33.4234 714.568 33.1748 713.183 35.6535C712.635 36.6358 710.281 37.5949 707.953 37.7862C704.072 38.1043 703.737 37.8691 703.924 34.965L704.128 31.7952L699.713 34.051C697.285 35.2904 694.593 36.3055 693.732 36.3055C692.869 36.3055 692.164 37.2659 692.164 38.4382C692.163 40.1505 690.964 40.6221 686.082 40.8281C682.737 40.9694 680 40.5575 680 39.914C680 39.2694 679.469 38.7429 678.821 38.7429C678.174 38.7429 677.958 39.5655 678.343 40.5709C678.798 41.7579 678.312 42.3989 676.959 42.3989C675.605 42.3989 675.119 41.7579 675.574 40.5709C676.41 38.387 675.094 38.2579 671.012 40.1212C669.35 40.8805 666.997 41.0815 665.785 40.5697C662.279 39.0914 658.104 38.8063 658.104 40.0444C658.104 42.1881 655.835 41.1802 655.045 38.6844C654.597 37.2732 654.954 35.344 655.866 34.2436C657.29 32.5228 657.126 32.4082 654.445 33.2479C652.777 33.7695 651.14 34.597 650.806 35.0869C649.252 37.3597 644.665 37.5425 641.488 35.4561C637.084 32.5642 632.353 32.5374 630.304 35.3928C629.35 36.7223 627.87 37.3853 626.784 36.9673C625.752 36.5712 623.894 37.1672 622.652 38.2932C620.49 40.2541 619.753 39.596 620.213 36.1167C620.394 34.7493 616.863 33.9109 616.105 35.1405C614.941 37.0282 613.426 36.481 612.761 33.934C612.24 31.9378 611.114 31.582 605.625 31.6795C602.041 31.744 597.809 32.2742 596.222 32.8591C593.703 33.7865 593.419 33.6086 593.979 31.4577C595.028 27.4409 592.972 28.6035 587.242 35.266C582.628 40.6331 581.397 41.4264 578.73 40.7562C576.354 40.1578 575.765 39.3912 576.25 37.5291C577.13 34.1595 572.591 34.2326 569.186 37.6436C566.303 40.5319 560.552 42.5391 558.608 41.335C557.898 40.8951 557.414 39.4461 557.533 38.1153C557.705 36.1922 557.126 35.7827 554.709 36.1203C553.036 36.3531 550.965 37.1208 550.104 37.8277C548.13 39.4497 535.093 36.5919 533.651 34.2204C533.107 33.3283 532.15 32.9164 531.523 33.3052C530.894 33.6939 530.38 33.4307 530.38 32.7214C530.38 30.4632 526.735 31.3297 523.47 34.3618C521.062 36.598 518.919 37.3036 514.428 37.339C511.191 37.3633 508.222 36.8661 507.832 36.2324C507.386 35.5122 506.295 35.5231 504.917 36.2617C503.581 36.9782 501.251 37.0234 499 36.3762C496.958 35.7901 494.984 35.6146 494.612 35.9863C494.24 36.358 490.391 36.8613 486.058 37.1038C481.725 37.3463 476.751 38.0885 475.007 38.7526C470.913 40.3125 465.91 40.3065 465.91 38.7429C465.91 38.0726 465.089 37.5242 464.086 37.5242C463.082 37.5242 462.261 38.0726 462.261 38.7429C462.261 39.4132 461.619 39.9616 460.833 39.9616C460.047 39.9616 460.731 38.5028 462.353 36.7199C464.966 33.8475 465.025 33.5855 462.869 34.4203C459.993 35.5353 458.321 35.9253 452.225 36.9027C449.379 37.3597 447.664 38.3018 447.664 39.4071C447.664 41.8115 445.231 41.5946 441.702 38.8769C439.53 37.2025 438.973 35.8949 439.527 33.7695C439.999 31.961 439.55 30.1122 438.306 28.7339C435.989 26.1674 434.283 25.9187 434.283 28.1453C434.283 29.8843 426.897 37.5242 425.217 37.5242C424.643 37.5242 422.268 38.9805 419.939 40.7598C416.525 43.369 415.284 43.7334 413.536 42.639C411.43 41.3216 408.793 41.4435 403.592 43.0972C401.636 43.72 401.236 43.4726 401.803 41.9919C402.284 40.733 401.987 40.2955 400.927 40.7025C400.044 41.0425 398.972 40.4076 398.545 39.2925C397.984 37.8301 396.925 37.4779 394.739 38.0275C391.482 38.8465 390.811 37.6924 393.168 35.3306C395.637 32.8579 392.316 33.6488 388.887 36.3506C386.257 38.4236 385.343 38.5857 383.348 37.3377C381.442 36.1459 380.569 36.1666 379.035 37.4426C377.715 38.5394 377.112 38.6052 377.112 37.6497C377.112 36.7918 375.997 36.5395 374.203 36.9905C372.604 37.3926 370.93 37.1294 370.482 36.4043C370.036 35.6791 370.25 35.0869 370.958 35.0869C371.666 35.0869 372.246 34.5336 372.246 33.8584C372.246 33.1272 371.195 33.2503 369.654 34.1631C367.911 35.1941 366.907 35.2745 366.59 34.4068C366.084 33.0248 350.222 33.0505 347.985 34.4361C347.279 34.8736 346.701 34.6372 346.701 33.9121C346.701 33.1285 345.53 33.3624 343.813 34.4885C339.962 37.0173 330.278 38.0141 323.893 36.5395C320.641 35.7888 318.724 35.7766 318.724 36.5066C318.724 37.1452 318.168 37.3231 317.488 36.9027C316.808 36.481 316.493 35.7449 316.79 35.2648C317.508 34.0985 311.378 34.3496 308.66 35.5975C307.474 36.1423 304.35 36.0399 301.719 35.3708C298.281 34.497 296.776 34.5421 296.366 35.5354C295.983 36.464 295.338 36.3177 294.395 35.0869C293.349 33.722 292.838 33.6415 292.382 34.7664C292.045 35.5951 290.809 37.4621 289.634 38.916C287.728 41.2753 287.066 41.4081 283.477 40.1541C278.651 38.4687 255.369 41.4423 250.951 44.3074C247.392 46.6168 244.959 46.5169 244.004 44.0234C243.412 42.4745 242.889 42.3295 241.806 43.4141C239.818 45.4054 235.378 45.186 233.574 43.0083C232.741 42.0029 231.01 41.1803 229.727 41.1803C228.444 41.1803 225.911 40.1346 224.099 38.8562C219.499 35.6145 212.388 34.5506 210.171 36.7711C209.211 37.7338 207.767 38.114 206.963 37.6168C206.16 37.1196 200.285 36.8381 193.907 36.9905C184.917 37.2062 182.164 36.8868 181.659 35.5682C181.301 34.6335 180.005 33.8682 178.777 33.8682C177.55 33.8682 176.208 33.3198 175.795 32.6495C175.381 31.9792 172.694 31.4308 169.822 31.4308C166.951 31.4308 162.871 30.8264 160.756 30.0879C158.641 29.3493 155.958 29.1592 154.796 29.665C151.901 30.9275 148.383 30.3767 144.854 28.1075C141.152 25.7274 122.085 24.6891 119.627 26.7328C118.368 27.7809 117.441 27.6322 115.768 26.115C112.405 23.0658 109.719 23.6228 109.276 27.4592C108.86 31.0713 104.634 33.1041 104.634 29.6918C104.634 27.3032 101.766 27.1923 99.8488 29.5065C98.6482 30.9543 97.8782 30.9787 95.1376 29.6552C84.5974 24.5636 82.78 23.9409 80.5358 24.655C79.1843 25.0852 77.6979 24.8219 77.2344 24.07C76.771 23.3181 75.1689 23.0098 73.6752 23.3851C71.6875 23.8848 70.5697 23.34 69.5065 21.3512C68.3825 19.2489 66.7829 18.5519 62.4282 18.2679C59.3348 18.0668 55.8315 17.3807 54.6455 16.7446C51.034 14.8081 48.7629 15.4369 47.9735 18.5908C46.9237 22.7807 42.7028 23.9067 40.1033 20.6894C38.3577 18.5299 37.7386 18.3959 35.7704 19.7461C33.2293 21.4901 25.5671 21.8679 25.5671 20.2495C25.5671 18.9455 20.6248 21.7034 18.6359 24.1188C17.8076 25.1242 17.1118 26.9205 17.0911 28.1099C17.0692 29.2994 15.7579 30.7654 14.1766 31.3675C12.5952 31.9695 10.9713 33.3271 10.5662 34.3837C10.1612 35.4415 8.65401 36.3055 7.21742 36.3055C5.20303 36.3055 4.75053 36.8637 5.24074 38.7429C5.63486 40.2541 5.27725 41.1803 4.30168 41.1803C3.43437 41.1803 2.37608 43.0473 1.94913 45.3274C1.52217 47.6088 0.321564 49.8024 -0.718475 50.2021C-3.26564 51.182 -3.3727 51.1551 -3.95779 49.4063C-4.23758 48.5691 -4.21933 49.4599 -3.91644 51.3867C-3.53448 53.8204 -3.79478 54.6259 -4.76671 54.0239C-5.5367 53.5474 -6.89424 53.7619 -7.78344 54.5016C-8.67264 55.2414 -10.3537 55.4802 -11.5203 55.0317C-13.2354 54.3724 -13.4872 54.6966 -12.8413 56.7367C-12.0105 59.3568 -13.8582 61.6077 -15.1379 59.5335C-15.5405 58.8815 -16.6864 58.6622 -17.6863 59.0461C-19.0158 59.5579 -19.1545 60.1648 -18.2033 61.3128C-17.1839 62.5449 -17.7641 62.8154 -20.9098 62.5741C-23.1127 62.4047 -26.0005 62.6546 -27.3276 63.1286C-29.6303 63.9512 -29.6133 64.0304 -26.9566 64.875C-23.1419 66.0888 -24.1418 68.018 -30.1582 71.0525C-34.0909 73.0365 -34.9095 73.942 -33.7856 75.068C-32.6616 76.1941 -33.181 76.5219 -36.087 76.5219C-38.7425 76.5219 -40.4199 77.4079 -41.8224 79.554C-42.9123 81.2211 -46.5166 83.8254 -49.8313 85.3427C-53.9343 87.2194 -56.226 89.1376 -57.0143 91.3532C-57.7368 93.3847 -59.2354 94.7582 -61.0053 95.0092C-63.0793 95.3029 -64.0026 96.3924 -64.4478 99.0674C-65.1862 103.505 -70.1564 109.426 -73.144 109.426C-74.5258 109.426 -75.0768 110.059 -74.6548 111.16C-74.2716 112.161 -75.0854 113.482 -76.5755 114.281C-78.4256 115.273 -78.9402 116.365 -78.3855 118.119C-77.6313 120.499 -77.7213 120.512 -81.4813 118.565C-83.61 117.461 -85.5368 116.743 -85.7619 116.967C-85.9857 117.193 -86.5087 120.346 -86.9223 123.974C-87.5038 129.065 -88.4185 131.209 -90.9353 133.376C-94.1235 136.12 -94.222 136.129 -95.4664 133.799C-96.7181 131.456 -96.7644 131.455 -98.1961 133.752C-98.9965 135.037 -101.613 137.021 -104.011 138.16C-106.943 139.556 -108.144 140.821 -107.68 142.032C-107.106 143.531 -107.958 143.69 -112.785 142.987C-118.14 142.207 -118.395 142.284 -116.146 143.996C-113.879 145.722 -113.84 146.084 -115.58 149.27C-116.874 151.64 -118.739 152.921 -121.662 153.442C-123.98 153.857 -125.399 154.269 -124.816 154.356C-124.232 154.445 -124.435 155.34 -125.269 156.345C-126.102 157.351 -126.402 158.173 -125.938 158.173C-125.473 158.173 -126.196 159.58 -127.546 161.298C-128.929 163.06 -129.671 165.277 -129.248 166.383C-128.672 167.884 -129.008 168.149 -130.667 167.511C-132.284 166.889 -132.658 167.146 -132.133 168.519C-131.701 169.646 -132.12 170.36 -133.213 170.36C-134.196 170.36 -135 171.183 -135 172.188C-135 173.307 -133.864 174.016 -132.073 174.016C-129.741 174.016 -129.276 174.514 -129.784 176.46C-130.453 179.026 -128.099 182.937 -126.485 181.937C-125.968 181.617 -124.868 182.171 -124.041 183.17C-122.777 184.695 -123.026 184.984 -125.598 184.984C-128.722 184.984 -130.195 186.828 -129.245 189.554C-128.954 190.391 -127.649 191.078 -126.345 191.078C-125.042 191.078 -123.661 191.9 -123.276 192.906C-122.891 193.911 -121.813 194.734 -120.881 194.734C-118.539 194.734 -118.744 198.296 -121.138 199.216C-122.628 199.789 -122.201 200.339 -119.326 201.551C-117.04 202.514 -115.809 203.773 -116.187 204.761C-116.57 205.761 -115.161 207.136 -112.524 208.333C-110.167 209.404 -108.239 209.787 -108.239 209.186C-108.239 208.195 -105.485 208.507 -99.3164 210.195C-97.6694 210.646 -97.2716 211.55 -97.7971 213.649C-98.3202 215.736 -97.7278 217.107 -95.5686 218.81C-93.9508 220.084 -92.4449 222.729 -92.2223 224.687C-91.9133 227.405 -91.2722 228.153 -89.5133 227.849C-88.247 227.629 -86.7581 228.178 -86.2059 229.067C-85.4018 230.36 -84.7206 230.386 -82.8011 229.194C-80.8731 227.997 -79.5472 228.061 -76.0731 229.516C-70.8036 231.722 -69.8681 236.16 -74.7873 235.619C-79.1093 235.144 -78.5655 237.031 -74.0964 238.015C-72.0443 238.466 -70.0895 239.558 -69.7514 240.439C-69.4132 241.321 -67.8088 242.377 -66.1848 242.785C-63.4966 243.46 -62.7448 244.948 -62.9042 249.269C-62.9358 250.108 -61.886 250.793 -60.5723 250.793C-58.6187 250.793 -58.2429 251.517 -58.5129 254.753C-58.6941 256.932 -59.576 259.601 -60.4725 260.686C-61.9176 262.435 -61.7182 262.598 -58.7136 262.128L-55.3247 261.598L-58.1966 264.116C-61.009 266.583 -61.0151 266.636 -58.5007 266.636C-57.0885 266.636 -55.9329 267.184 -55.9329 267.854C-55.9329 268.524 -54.8381 269.073 -53.5 269.073C-52.162 269.073 -51.0672 269.621 -51.0672 270.292C-51.0672 270.962 -52.2252 271.51 -53.6399 271.51C-56.0947 271.51 -56.1226 271.648 -54.2481 274.514C-53.168 276.166 -52.2836 278.341 -52.2836 279.346C-52.2836 280.352 -51.1889 281.761 -49.8508 282.478C-48.3838 283.264 -47.418 285.03 -47.418 286.925C-47.418 289.809 -47.092 290.006 -43.4646 289.331C-36.7755 288.087 -34.8767 287.565 -27.9553 285.068C-24.2756 283.741 -18.2908 282.315 -14.6562 281.898C-9.44141 281.301 -7.07547 280.26 -3.4323 276.963C1.7691 272.256 8.48859 269.075 13.2472 269.068C15.0049 269.066 18.3598 267.882 20.7014 266.438C23.043 264.995 29.861 262.82 35.8519 261.605C45.1283 259.724 47.0223 259.646 48.6243 261.076C50.8613 263.073 55.9848 263.889 58.0807 262.581C58.903 262.068 60.7033 262.252 62.0803 262.99C63.4573 263.729 65.5811 264.017 66.8 263.629C69.5223 262.763 73.2397 264.053 72.3201 265.545C71.9503 266.144 73.0025 266.636 74.6593 266.636C76.3148 266.636 77.8791 267.263 78.1333 268.028C78.4788 269.067 79.2804 269.056 81.2766 267.986C83.4515 266.819 83.9551 266.874 83.9551 268.278C83.9551 269.229 85.1205 270.312 86.5461 270.686C88.2771 271.14 88.895 271.996 88.4084 273.265C87.9705 274.411 88.3354 275.166 89.328 275.166C93.3094 275.166 101.756 281.091 102.377 284.319C102.655 285.769 103.814 286.744 105.259 286.744C106.588 286.744 108.089 287.761 108.595 289.004C109.19 290.464 110.22 290.993 111.508 290.497C112.637 290.063 114.57 290.669 115.964 291.894C118.325 293.967 118.394 293.964 117.627 291.86C117.186 290.652 117.32 289.97 117.922 290.342C118.526 290.717 119.372 293.114 119.803 295.669L120.588 300.317L126.903 300.131C130.377 300.028 133.581 300.492 134.022 301.159C134.511 301.898 135.614 301.581 136.846 300.347C139.39 297.798 140.708 297.79 142.117 300.31C142.808 301.547 145.205 302.449 148.461 302.696C151.337 302.914 154.082 303.724 154.556 304.494C155.181 305.508 155.65 305.521 156.252 304.545C156.709 303.803 158.487 303.196 160.201 303.196C162.991 303.196 163.144 303.419 161.65 305.308C160.068 307.31 160.151 307.31 163.284 305.308C165.1 304.146 167.798 303.196 169.28 303.196C173.432 303.196 180.052 305.944 180.052 307.668C180.052 308.518 180.78 308.933 181.669 308.591C182.558 308.25 183.929 309.227 184.716 310.763C186.106 313.474 186.128 313.478 185.47 310.875C184.389 306.595 188.252 303.705 194.889 303.833C197.987 303.893 201.336 304.619 202.332 305.448C203.776 306.647 204.272 306.634 204.775 305.38C205.175 304.378 205.44 304.581 205.501 305.938C205.598 308.103 207.334 308.626 213.008 308.202C215.379 308.024 217.416 309.37 221.219 313.626C224 316.74 226.276 320.274 226.276 321.481C226.276 322.809 227.677 324.164 229.828 324.915C231.781 325.598 234.539 327.317 235.955 328.736C237.371 330.154 238.975 331.038 239.522 330.7C240.068 330.361 241.553 330.872 242.823 331.835C244.092 332.797 246.107 333.603 247.302 333.624C250.159 333.675 255.624 337.301 254.817 338.609C253.954 340.007 258.293 342.193 261.932 342.193C263.566 342.193 265.584 343.016 266.418 344.022C268.861 346.972 271.14 346.138 272.238 341.889C272.801 339.71 273.502 337.977 273.794 338.035C274.086 338.094 277.199 338.524 280.711 338.991C284.222 339.458 287.097 340.369 287.097 341.016C287.097 341.663 288.133 342.193 289.4 342.193C290.666 342.193 292.017 343.016 292.403 344.022C292.797 345.051 294.607 345.85 296.547 345.85C298.441 345.85 300.728 346.536 301.629 347.373C302.96 348.611 303.081 348.554 302.272 347.068C301.55 345.743 301.946 345.828 303.709 347.373C306.798 350.08 307.35 350.049 308.114 347.124C308.483 345.713 310.152 344.463 312.209 344.057C314.12 343.68 317.709 342.916 320.186 342.359C323.01 341.723 325.152 341.81 325.935 342.593C326.786 343.446 327.897 343.194 329.434 341.799C330.674 340.675 332.329 339.756 333.113 339.756C333.896 339.756 334.537 339.161 334.537 338.436C334.537 337.71 335.222 337.368 336.058 337.675C336.895 337.982 339.22 337.248 341.227 336.043C343.234 334.839 346.655 333.98 348.83 334.133C351.005 334.287 352.783 333.932 352.783 333.346C352.783 332.76 353.814 332.607 355.073 333.007C356.461 333.449 357.619 333.064 358.015 332.027C358.773 330.048 362.263 330.333 369.205 332.945C375.572 335.338 378.328 335.332 378.328 332.923C378.328 331.682 378.997 331.222 380.153 331.667C381.156 332.052 381.977 331.882 381.977 331.289C381.977 329.213 388.593 327.984 394.12 329.033C398.931 329.946 399.821 329.772 401.266 327.632C402.565 325.708 403.409 325.45 405.219 326.42C406.486 327.1 407.581 327.224 407.651 326.698C407.723 326.172 407.859 324.645 407.955 323.304C408.194 319.977 414.777 319.676 417.032 322.89C417.915 324.145 419.122 324.872 419.715 324.504C420.308 324.138 423.573 326.607 426.969 329.991C431.852 334.857 433.584 335.909 435.247 335.017C438.705 333.163 444.067 334.861 445.338 338.211C446.046 340.077 447.135 340.971 448.198 340.563C450.695 339.603 458.91 342.135 460.54 344.369C461.789 346.081 462.274 346.015 465.154 343.746C468.231 341.322 472.456 341.205 473.875 343.506C474.221 344.067 475.194 344.259 476.039 343.934C476.883 343.61 480.006 344.203 482.978 345.254C485.951 346.304 488.526 346.731 488.701 346.202C488.877 345.673 495.18 345.417 502.706 345.634C510.233 345.851 517.486 346.034 518.824 346.041C523.079 346.065 530.92 345.01 532.908 344.147C533.963 343.688 536.355 343.895 538.225 344.608C540.525 345.484 542.104 345.503 543.109 344.667C543.925 343.989 544.975 343.816 545.442 344.284C545.908 344.752 549.355 345.291 553.103 345.484C556.849 345.676 560.659 346.453 561.569 347.21C562.811 348.243 563.224 348.213 563.224 347.086C563.224 346.263 564.028 345.898 565.009 346.275C565.991 346.653 567.118 346.437 567.514 345.796C568.66 343.94 571.942 344.444 573.613 346.734C574.457 347.891 576.434 348.85 578.005 348.867C579.576 348.883 580.77 349.445 580.66 350.115C580.549 350.785 582.191 351.402 584.309 351.486C599.435 352.082 600.895 352.343 601.602 354.573C601.996 355.816 603.454 356.818 604.872 356.818C606.28 356.818 608.382 357.68 609.545 358.733C611.234 360.267 612.536 360.407 616.04 359.438C618.45 358.771 620.13 358.698 619.774 359.276C619.417 359.853 620.096 360.259 621.281 360.178C627.426 359.752 630.686 362.043 630.372 366.567C630.349 366.902 631.621 367.253 633.199 367.348C634.777 367.442 637.689 368.675 639.671 370.09C643.382 372.737 649.435 373.495 651.475 371.568C652.809 370.308 658.104 372.008 658.104 373.698C658.104 375.483 663.396 376.38 664.392 374.764C665.078 373.651 666.165 373.633 668.951 374.686C671.909 375.806 672.891 375.728 674.09 374.28C674.905 373.297 676.602 372.76 677.86 373.091C679.186 373.438 680.434 372.946 680.827 371.921C681.231 370.864 682.386 370.431 683.69 370.846C684.893 371.228 686.229 370.97 686.659 370.273C688.012 368.081 689.654 368.885 690.47 372.14C691.778 377.362 699.636 378.654 705.738 374.649C707.511 373.484 710.246 372.646 711.815 372.786C717.58 373.299 719.868 372.624 720.494 370.223C721.012 368.237 722.22 367.759 727.021 367.642C730.262 367.561 733.382 367.581 733.954 367.685C734.527 367.787 735.758 367.236 736.691 366.461C737.966 365.401 738.805 365.397 740.064 366.444C741.384 367.541 741.882 367.291 742.411 365.264C742.921 363.31 743.689 362.885 745.607 363.495C747.287 364.03 748.365 363.689 748.828 362.477C749.327 361.174 750.793 360.808 753.992 361.187C756.449 361.477 757.788 361.394 756.97 361.003C754.807 359.97 758.439 354.802 761.948 353.92C763.463 353.539 765.384 351.978 766.217 350.452C767.976 347.229 772.953 343.301 775.811 342.881C776.898 342.721 778.298 341.061 778.92 339.193C780.428 334.658 784.119 331.112 786.413 331.994C787.76 332.512 788.48 331.653 789.036 328.868C789.613 325.973 790.838 324.595 794.016 323.265C797.968 321.61 798.362 321.664 800.339 324.11C802.066 326.246 803.09 326.532 805.997 325.69C807.951 325.126 810.369 324.598 811.373 324.518C812.376 324.437 814.018 323.996 815.022 323.537C816.025 323.077 821.226 323.759 826.578 325.05C832.401 326.454 836.478 326.922 836.731 326.214C836.976 325.529 837.945 325.688 839.032 326.591C840.064 327.45 842.575 328.236 844.611 328.338C846.648 328.442 849.034 329.512 849.915 330.717C851.63 333.068 851.747 332.827 851.974 326.464C852.149 321.58 854.468 320.168 855.746 324.168C856.525 326.608 856.712 326.68 857.223 324.738C857.573 323.412 858.515 322.787 859.559 323.188C860.533 323.562 862.451 322.544 863.889 320.886L866.472 317.911L870.245 320.546C872.32 321.995 874.439 323.866 874.955 324.702C875.628 325.793 877.068 325.042 880.067 322.037C882.663 319.436 884.954 318.126 886.118 318.573C887.149 318.969 887.714 319.747 887.372 320.301C886.122 322.328 889.44 322.876 891.525 320.986C892.706 319.915 894.588 319.039 895.706 319.039C896.823 319.039 897.738 318.183 897.738 317.139C897.738 316.094 898.286 315.578 898.955 315.992C899.624 316.406 900.188 317.947 900.21 319.415C900.247 321.961 900.389 321.926 903.273 318.64C904.937 316.745 906.969 315.418 907.787 315.692C908.606 315.965 909.872 315.047 910.601 313.653C911.329 312.258 912.549 311.249 913.311 311.41C914.072 311.571 916.705 310.337 919.159 308.668C923.963 305.402 925.716 304.919 925.716 306.862C925.716 307.59 926.706 307.471 928.149 306.569C929.487 305.732 930.582 304.415 930.582 303.642C930.582 302.26 933.235 300.758 935.677 300.758C936.363 300.758 936.598 301.609 936.199 302.65C935.759 303.8 935.979 304.229 936.76 303.745C937.465 303.308 938.334 304.06 938.687 305.415C939.464 308.39 944.007 308.291 947.388 305.227C950.348 302.543 951.888 302.664 954.82 305.817C956.528 307.654 957.727 308.085 958.821 307.258C961.299 305.383 966.676 305.513 968.311 307.486C969.824 309.312 972.535 310.058 971.546 308.375C971.251 307.872 971.496 306.169 972.091 304.591C972.813 302.674 973.803 301.965 975.076 302.455C976.161 302.872 978.708 301.866 980.997 300.116C984.28 297.608 985.577 297.261 988.09 298.217C989.782 298.862 991.525 299.971 991.964 300.683C993.548 303.251 994.995 301.899 994.571 298.249C994.267 295.635 994.593 294.696 995.662 295.107C996.502 295.429 997.776 295.104 998.494 294.385C999.426 293.451 1000.21 293.972 1001.22 296.195C1002.49 298.999 1002.99 299.189 1006.18 298.075C1009.06 297.072 1009.46 296.51 1008.3 295.112C1007.51 294.164 1007.27 292.989 1007.76 292.503C1008.24 292.017 1009.59 292.792 1010.75 294.226C1012.34 296.182 1013.38 296.544 1014.93 295.675C1016.07 295.038 1018.08 294.861 1019.4 295.282C1021.1 295.823 1021.81 295.486 1021.81 294.137C1021.81 293.087 1022.7 292.228 1023.79 292.228C1025.38 292.228 1025.47 292.573 1024.29 294.002C1022.67 295.958 1023.61 298.487 1025.86 298.209C1028.97 297.824 1030 298.454 1031.51 301.672C1032.37 303.516 1033.29 304.445 1033.55 303.737C1034.16 302.064 1040.84 302.537 1043.1 304.413C1044.06 305.214 1046.77 306.048 1049.11 306.266C1051.45 306.484 1053.89 306.987 1054.53 307.386C1055.18 307.784 1056.05 307.544 1056.48 306.852C1056.91 306.16 1057.77 305.909 1058.39 306.295C1060.45 307.572 1062.2 305.566 1060.65 303.697C1059.5 302.306 1059.73 301.977 1061.88 301.977C1063.34 301.977 1064.19 302.526 1063.78 303.196C1063.37 303.866 1063.52 304.414 1064.12 304.414C1064.72 304.414 1065.84 305.786 1066.6 307.461C1067.36 309.137 1068.82 310.508 1069.84 310.508C1072.06 310.508 1072.32 307.31 1070.17 306.44C1068.95 305.949 1068.95 305.806 1070.17 305.729C1071 305.677 1071.69 304.847 1071.69 303.887C1071.69 302.098 1075.8 300.155 1077.45 301.161C1078.99 302.097 1081.02 299.039 1080.8 296.102C1080.67 294.28 1081.14 293.546 1082.19 293.948C1083.06 294.284 1084.03 294.135 1084.35 293.618C1084.67 293.102 1088.33 292.719 1092.49 292.769C1098.72 292.843 1100.14 292.484 1100.6 290.715C1101.23 288.308 1104.7 287.715 1104.23 290.095C1104.06 290.934 1104.84 291.467 1105.96 291.281C1107.08 291.096 1108.34 291.508 1108.77 292.195C1109.19 292.883 1110.91 293.446 1112.59 293.446C1115.74 293.446 1119.13 295.928 1119.13 298.235C1119.13 298.952 1119.86 299.54 1120.75 299.54C1121.76 299.54 1122.37 301.001 1122.37 303.432C1122.37 305.573 1123.01 307.539 1123.79 307.8C1124.57 308.061 1125.21 309.05 1125.21 310C1125.21 310.95 1126.03 311.727 1127.03 311.727C1128.04 311.727 1128.86 312.212 1128.86 312.803C1128.86 314.366 1133.59 315.366 1134.44 313.984C1134.87 313.291 1136.36 313.6 1138.09 314.735C1140.53 316.333 1141.02 316.366 1141.02 314.932C1141.02 312.709 1144.15 311.337 1149.67 311.132C1152.95 311.01 1154.02 311.448 1153.92 312.871C1153.85 314.023 1154.99 314.939 1156.84 315.194C1158.51 315.426 1160.59 316.203 1161.46 316.918C1162.66 317.905 1163.21 317.554 1163.76 315.47C1164.33 313.291 1165.16 312.82 1167.78 313.205C1170.38 313.587 1171.37 313.035 1172.48 310.575C1176.1 302.573 1179.04 298.951 1183.91 296.519C1188.56 294.195 1188.46 294.182 1188.46 297.102C1188.46 298.978 1189.27 299.54 1191.98 299.54C1194.1 299.54 1195.8 298.756 1196.25 297.574C1196.85 296.014 1197.37 295.909 1198.76 297.066C1199.72 297.867 1201.55 298.191 1202.83 297.785C1204.22 297.344 1205.79 297.818 1206.73 298.963C1207.61 300.017 1210.63 301.933 1213.45 303.221C1216.28 304.51 1218.89 306.362 1219.27 307.338C1219.64 308.314 1221.48 309.29 1223.36 309.506C1226.03 309.813 1226.72 310.471 1226.51 312.524C1226.24 315.155 1227.25 315.899 1233.76 317.857C1235.85 318.487 1237.38 318.381 1237.88 317.574C1238.38 316.765 1239.08 317.024 1239.78 318.273C1240.98 320.422 1245.63 321.031 1245.63 319.039C1245.63 318.368 1246.18 317.82 1246.85 317.82C1247.52 317.82 1248.07 318.917 1248.07 320.257C1248.07 323.28 1252.33 323.601 1253.45 320.663C1254.06 319.074 1254.55 318.952 1255.7 320.104C1256.85 321.257 1256.8 321.804 1255.5 322.614C1254.17 323.436 1254.36 323.941 1256.42 325.044C1257.85 325.81 1259.01 327.24 1259.01 328.221C1259.01 329.204 1259.84 330.007 1260.84 330.007C1261.84 330.007 1262.66 329.184 1262.66 328.179C1262.66 327.173 1262.12 326.351 1261.45 326.351C1260.78 326.351 1260.23 325.853 1260.23 325.247C1260.23 324.638 1261.33 324.429 1262.66 324.779C1264 325.13 1265.1 325.767 1265.1 326.196C1265.1 327.55 1272.39 330.27 1274.18 329.583C1275.12 329.221 1277.91 329.912 1280.39 331.117C1284.32 333.035 1285.31 333.101 1288.22 331.646C1290.05 330.731 1292.98 328.553 1294.72 326.806C1296.58 324.947 1298.65 323.927 1299.74 324.344C1301.41 324.987 1302.32 322.438 1301.73 318.734C1301.65 318.231 1302.36 317.82 1303.31 317.82C1304.26 317.82 1305.26 317.146 1305.53 316.322C1305.9 315.216 1306.84 315.358 1309.15 316.868C1312.59 319.129 1314.91 318.323 1311.7 315.979C1309.87 314.631 1309.94 314.157 1312.55 310.374C1314.11 308.102 1315.5 306.09 1315.62 305.904C1315.75 305.717 1317.29 306.115 1319.06 306.787C1321.12 307.573 1322.27 307.585 1322.27 306.821C1322.27 306.168 1321.48 305.633 1320.52 305.633C1317.96 305.633 1316.97 303.359 1318.64 301.337C1319.9 299.826 1320.43 299.821 1322.54 301.302C1324.69 302.806 1325.27 302.757 1327.25 300.912C1328.49 299.752 1329.73 297.461 1330.01 295.82C1330.3 294.05 1331.18 293.014 1332.17 293.272C1337.04 294.551 1342.72 294.799 1343.36 293.762C1343.79 293.069 1342.85 292.818 1341.09 293.155C1338.65 293.622 1338.08 293.238 1338.08 291.129C1338.08 288.963 1338.59 288.653 1341.11 289.287C1343.26 289.828 1344.36 289.484 1344.89 288.099C1345.3 287.026 1346.12 286.451 1346.72 286.823C1347.32 287.193 1347.81 286.842 1347.81 286.043C1347.81 284.992 1350.25 284.762 1356.57 285.215C1364.71 285.799 1365.07 285.725 1361.74 284.153L1358.15 282.464L1363.47 282.984C1367.16 283.345 1368.4 283.116 1367.52 282.233C1365.75 280.459 1367.1 277.604 1369.71 277.604C1371.56 277.604 1371.74 276.977 1370.95 273.437L1370.01 269.272L1375.7 269.559C1382.44 269.902 1384.08 270.756 1385.58 274.697C1386.9 278.184 1389.92 279.504 1399.29 280.675C1405.79 281.489 1406.2 281.386 1406.2 278.962C1406.2 275.321 1408.46 275.761 1409.95 279.695C1410.87 282.114 1411.47 282.571 1412.2 281.392C1412.79 280.439 1414.18 280.093 1415.61 280.548C1419.31 281.723 1422.42 280.175 1420.66 278.041C1418.29 275.188 1420.41 274.775 1423.18 277.549C1425.23 279.608 1426.62 279.972 1430 279.335C1433.38 278.7 1434.11 278.087 1433.56 276.345C1432.66 273.5 1434.7 272.249 1436.57 274.502C1437.7 275.877 1438.65 275.96 1440.98 274.893C1443.46 273.76 1444.24 273.922 1445.72 275.875C1446.9 277.441 1447.49 277.663 1447.52 276.547C1447.55 275.434 1448.57 275.075 1450.59 275.464C1452.32 275.794 1454.22 275.33 1455 274.386C1456.06 273.104 1455.92 272.729 1454.4 272.729C1453.31 272.729 1452.42 272.25 1452.42 271.665C1452.42 271.08 1454.98 270.549 1458.11 270.487C1461.23 270.423 1464.1 269.943 1464.49 269.418C1465.72 267.754 1469.45 268.055 1469.45 269.818C1469.45 270.76 1470.67 271.51 1472.19 271.511C1474.68 271.513 1474.91 270.978 1474.72 265.723C1474.4 257.086 1478.88 252.147 1483.64 255.893C1484.51 256.578 1485.35 256.514 1485.84 255.727C1486.27 255.024 1485.96 254.449 1485.14 254.449C1484.32 254.449 1483.93 254.159 1484.29 253.805C1485.32 252.775 1491.03 255.347 1493.73 258.056C1497.26 261.593 1499.3 261.151 1501.57 256.358C1503.6 252.067 1503.33 252.17 1513.58 251.918C1514.76 251.888 1515.44 251.386 1515.08 250.804C1514.72 250.22 1514.88 249.458 1515.44 249.111C1517 248.146 1520.81 253.222 1520.04 255.236C1519.66 256.213 1519.81 256.733 1520.36 256.389C1522 255.377 1533.92 259.656 1533.92 261.254C1533.92 262.059 1534.79 263.051 1535.85 263.458C1538.82 264.603 1539.22 264.354 1537.57 262.37C1536.53 261.108 1536.48 260.542 1537.43 260.542C1538.18 260.542 1538.81 259.582 1538.83 258.409C1538.86 257.237 1539.67 254.906 1540.63 253.23L1542.39 250.183L1543.16 252.897C1543.89 255.502 1547.24 256.142 1549.3 254.073C1549.76 253.61 1551.28 253.222 1552.68 253.212C1554.07 253.202 1556.58 252.412 1558.25 251.457C1565.09 247.552 1569.19 246.143 1571.76 246.817C1573.93 247.384 1574.32 247.12 1573.71 245.519C1572.87 243.327 1577.55 237.387 1580.12 237.387C1581.14 237.387 1581.37 236.361 1580.84 234.243C1580.17 231.545 1580.38 231.205 1582.38 231.84C1584.1 232.387 1584.9 231.874 1585.42 229.873C1586.09 227.309 1586.25 227.275 1588.4 229.229C1591.51 232.043 1593.62 231.796 1597 228.226C1598.58 226.562 1600.43 225.201 1601.13 225.201C1601.82 225.201 1603.01 224.347 1603.77 223.304C1604.95 221.692 1606.92 220.874 1610.73 220.42C1611.16 220.367 1611.92 218.818 1612.43 216.974L1613.34 213.623L1614.22 216.67C1615.04 219.543 1615.15 219.578 1616.08 217.279C1617.95 212.67 1621.46 212.403 1629.15 216.286C1632.45 217.949 1632.5 217.925 1630.98 215.425C1629.61 213.182 1629.76 212.569 1632.15 210.607C1633.65 209.37 1634.89 207.76 1634.89 207.03C1634.89 206.299 1635.43 205.702 1636.1 205.702C1636.77 205.702 1637.32 206.524 1637.32 207.53C1637.32 208.535 1636.77 209.358 1636.1 209.358C1635.43 209.358 1634.91 210.318 1634.93 211.49C1634.96 213.013 1636.17 212.229 1639.14 208.754C1642.48 204.844 1643.59 204.188 1644.82 205.419C1646.05 206.651 1647.11 206.098 1650.21 202.611C1653.34 199.087 1654.64 198.416 1657.14 199.045C1659.05 199.525 1660.51 200.959 1660.97 202.817C1662.1 207.304 1671.37 216.225 1675.94 217.221C1679.11 217.912 1679.76 217.734 1679.22 216.314C1678.45 214.321 1681.86 212.481 1682.97 214.286C1684.32 216.469 1685.78 215.458 1686.58 211.795C1687.58 207.24 1689.06 207.129 1690.65 211.49C1691.32 213.334 1691.91 214.157 1691.96 213.318C1692.14 210.529 1694.49 211.749 1694.49 214.63C1694.49 216.188 1695.95 218.793 1697.73 220.418C1700.18 222.655 1700.78 222.855 1700.2 221.24C1699.78 220.067 1699.96 219.107 1700.61 219.107C1701.26 219.107 1701.81 219.793 1701.83 220.63C1701.85 221.469 1702.67 223.221 1703.66 224.525C1705.05 226.367 1705.77 226.571 1706.9 225.439C1708.62 223.719 1711.93 223.558 1714.88 225.052C1721.04 228.168 1726.59 230.14 1725.21 228.714C1723.14 226.592 1723.28 224.785 1725.45 225.617C1726.6 226.058 1726.99 225.71 1726.57 224.62C1726.21 223.677 1727.28 222.056 1729.02 220.912C1732.53 218.61 1739.66 219.191 1746.59 222.346C1750.64 224.189 1753.73 223.575 1750.49 221.571C1747.79 219.9 1751.21 216.542 1754.84 217.291C1756.44 217.619 1759.16 218.185 1760.88 218.545C1763.61 219.116 1763.92 218.873 1763.23 216.717C1762.8 215.351 1762.78 214.232 1763.18 214.232C1764.98 214.232 1772.02 217.739 1773.8 219.526C1774.89 220.613 1778.27 221.711 1781.33 221.966C1786.09 222.365 1786.99 222.072 1787.68 219.911C1789.45 214.304 1794.43 212.196 1799.57 214.871C1802.25 216.265 1803.48 216.364 1804.77 215.29C1805.7 214.518 1806.81 214.238 1807.24 214.671C1807.68 215.103 1809.05 214.53 1810.3 213.396C1812.23 211.65 1813.18 211.557 1816.57 212.785C1821.66 214.628 1822.22 214.603 1822.22 212.532C1822.22 208.587 1835.29 214.738 1844.62 223.068C1845.93 224.24 1847.74 225.201 1848.65 225.201C1849.56 225.201 1850.14 226.104 1849.94 227.206C1849.39 230.315 1851.9 230.415 1853.25 227.338C1854.3 224.929 1855.34 224.591 1861.72 224.591C1867.59 224.591 1869.08 224.191 1869.4 222.529C1869.72 220.908 1871.13 220.477 1875.97 220.515C1879.36 220.54 1882.53 219.933 1883 219.164C1883.48 218.395 1884.99 217.681 1886.36 217.578C1887.85 217.466 1888.61 216.759 1888.25 215.822C1887.92 214.959 1888.53 213.916 1889.6 213.502C1892.2 212.503 1892.09 210.596 1889.42 210.5C1886.17 210.381 1892.53 207.988 1897.63 207.409C1899.97 207.143 1903.81 206.685 1906.15 206.391C1908.49 206.098 1911.35 205.822 1912.5 205.78C1913.84 205.73 1914.34 205.05 1913.89 203.874C1912.93 201.372 1914.65 201.567 1916.56 204.176C1918.01 206.172 1918.26 206.133 1920.5 203.548C1921.98 201.837 1923.63 201.079 1924.86 201.548C1925.94 201.966 1926.83 201.701 1926.83 200.957C1926.83 200.215 1927.71 199.608 1928.78 199.608C1930.01 199.608 1930.48 198.937 1930.04 197.792C1929.56 196.548 1930.39 195.721 1932.65 195.16C1934.46 194.712 1936.86 193.304 1937.98 192.032C1940.36 189.314 1951.33 188.691 1954.24 191.109C1955.52 192.18 1956.02 192.206 1956.02 191.201C1956.02 190.434 1957.53 189.164 1959.37 188.378C1961.21 187.593 1963.65 186.167 1964.8 185.21C1965.94 184.253 1967.67 183.773 1968.63 184.143C1969.69 184.552 1970.62 183.896 1970.99 182.469C1971.33 181.178 1972.61 179.76 1973.85 179.317C1975.08 178.875 1976.86 177.912 1977.8 177.178C1979.84 175.586 1985.22 175.292 1985.22 176.774C1985.22 177.347 1985.78 177.464 1986.48 177.032C1987.18 176.601 1987.41 175.198 1987.01 173.915C1986.46 172.172 1987.06 171.279 1989.39 170.392C1991.11 169.737 1992.51 168.639 1992.51 167.953C1992.51 167.266 1993.47 165.696 1994.64 164.464C1995.81 163.232 1997.32 161.308 1997.99 160.186C1998.87 158.707 2001.5 157.984 2007.6 157.548C2012.22 157.218 2016.71 156.354 2017.58 155.627C2018.45 154.901 2019.76 154.676 2020.49 155.127C2021.22 155.577 2022.48 155.391 2023.3 154.713C2024.11 154.035 2026.96 153.302 2029.63 153.085C2033.46 152.772 2034.41 152.241 2034.12 150.557C2033.93 149.384 2034.37 148.424 2035.11 148.424C2035.85 148.424 2036.16 148.898 2035.8 149.478C2035.44 150.058 2038.25 150.898 2042.05 151.345C2048.55 152.11 2049.16 151.951 2052.48 148.627L2056 145.097L2053.81 140.972C2052.6 138.702 2051.74 136.403 2051.89 135.859C2052.28 134.459 2040.89 124.05 2038.97 124.05C2038.1 124.05 2037.71 123.518 2038.11 122.867C2038.51 122.217 2037.97 120.007 2036.91 117.957C2035.85 115.907 2035.29 113.735 2035.67 113.131C2036.04 112.526 2035.81 111.703 2035.16 111.299C2034.51 110.896 2034.25 109.871 2034.57 109.02C2034.92 108.101 2033.46 106.805 2030.98 105.827C2028.33 104.789 2027.02 103.577 2027.42 102.538C2028.16 100.604 2026.38 100.354 2024.6 102.143C2023.27 103.473 2014.85 104.182 2013.73 103.059C2013.36 102.691 2012.99 101.094 2012.91 99.5098C2012.72 95.7709 2011.01 93.5834 2008.28 93.5834C2007.08 93.5834 2005.9 92.9899 2005.66 92.2635C2005.16 90.7755 1984.97 88.7989 1978.12 89.5666C1971.86 90.2698 1965.75 88.9378 1965.75 86.8684C1965.75 85.9167 1964.8 84.6273 1963.62 84.0021C1960.13 82.1363 1949.31 81.6001 1943.24 82.9918C1939.13 83.9339 1935.73 83.9083 1930.92 82.8968C1926.44 81.9559 1923.26 81.8902 1921.15 82.6933C1919.19 83.4403 1917.5 83.4574 1916.64 82.7396C1915.88 82.1095 1911.84 81.7378 1907.66 81.9145C1902.33 82.1388 1900.07 81.7914 1900.07 80.7531C1900.07 78.4644 1891.3 77.3104 1873.21 77.2165C1860.38 77.1507 1855.77 76.6767 1852.53 75.0948C1846.21 72.0031 1834.55 69.7716 1827.08 70.2238C1809.79 71.2718 1800.32 70.2421 1800.32 67.316C1800.32 66.4252 1799.64 65.3027 1798.8 64.8214C1797.96 64.3388 1797.69 64.3948 1798.18 64.9445C1798.68 65.4941 1798.07 66.6567 1796.83 67.5268C1795.15 68.7089 1793.46 68.7991 1790.15 67.8827C1786.59 66.8992 1785.72 66.0705 1785.72 63.6685C1785.72 60.3464 1784.95 60.1063 1780.16 61.9307C1777.37 62.9946 1776.6 62.7898 1775.05 60.5767C1773.47 58.31 1772.47 58.0723 1767.39 58.7475C1762.6 59.3836 1761.34 59.1448 1760.37 57.4167C1759.41 55.6947 1758.86 55.5887 1757.36 56.8354C1756.33 57.6946 1755.23 57.8737 1754.84 57.2461C1754.46 56.6331 1752.68 56.4125 1750.88 56.7574C1748.43 57.2278 1747.78 56.9597 1748.26 55.6801C1748.78 54.3054 1746.59 53.9167 1736.95 53.6668C1726.72 53.4024 1724.27 53.7351 1720 55.964C1716.01 58.0516 1714.49 58.3039 1712.36 57.2314C1709.33 55.7081 1701.61 55.3242 1691.7 56.2029C1689.16 56.4283 1686.8 56.1554 1686.46 55.596C1686.11 55.0378 1683.81 54.8806 1681.34 55.2474C1673.69 56.3857 1665.3 56.538 1665.3 55.5387C1665.3 55.0147 1664.48 54.5857 1663.47 54.5857C1662.47 54.5857 1661.65 54.0373 1661.65 53.367C1661.65 52.6968 1660.89 52.1483 1659.97 52.1483C1659.04 52.1483 1658.02 51.1332 1657.69 49.8926C1657.16 47.8659 1656.38 47.7428 1649.95 48.6751C1640.27 50.0778 1614.81 48.0317 1616.09 45.9538C1616.47 45.3408 1613.99 45.0946 1610.42 45.392C1606.92 45.6833 1603.2 45.4712 1602.14 44.9228C1601.09 44.3732 1599.14 44.3147 1597.83 44.7924C1596.27 45.3579 1594.65 44.9228 1593.17 43.5445C1590.08 40.6623 1584.07 39.9384 1578.93 41.8323C1573.01 44.0149 1567.01 44.935 1566.55 43.7309C1566.33 43.1752 1564.93 42.338 1563.42 41.8688C1561.4 41.24 1560.69 41.5069 1560.69 42.8828C1560.69 45.3981 1555.96 47.9061 1554.33 46.2633C1553.65 45.5833 1552.34 45.3164 1551.41 45.6711C1550.49 46.0257 1549.74 45.8271 1549.74 45.2299C1549.74 43.5445 1526.83 45.7734 1524.04 47.7294C1520.55 50.1802 1514.1 47.8001 1515.76 44.6766C1516.77 42.7865 1516.39 42.6244 1512.34 43.2081C1509.82 43.5701 1506.29 44.907 1504.48 46.1793C1500.68 48.8445 1497.43 49.193 1497.43 46.9348C1497.43 44.3988 1493.08 41.3216 1491.2 42.5208C1488.9 43.9747 1484.05 43.8918 1484.05 42.3989C1484.05 41.7287 1482.98 41.1803 1481.68 41.1803C1480.37 41.1803 1478.84 40.3503 1478.28 39.3364C1477.42 37.807 1476.17 37.6985 1470.91 38.6978C1467.42 39.3596 1463.04 41.0377 1461.16 42.427C1458.44 44.4414 1457.12 44.712 1454.63 43.7651C1452.49 42.9473 1451.09 43.001 1450.16 43.9345C1449.17 44.9314 1448.08 44.6255 1446.05 42.7816C1444.54 41.4008 1442.6 40.5283 1441.73 40.8427C1440.87 41.1571 1438.14 40.4466 1435.65 39.2645C1433.17 38.0824 1429.3 37.0026 1427.05 36.8649C1424.8 36.7272 1422.58 36.007 1422.12 35.2636C1421.58 34.3825 1417.85 34.0949 1411.38 34.4361C1403.79 34.8346 1401.6 34.6006 1402.04 33.438C1402.86 31.3126 1394.1 27.2191 1392.4 28.9277C1391.69 29.6345 1391.52 30.2122 1392.01 30.2122C1392.5 30.2122 1392.32 31.309 1391.6 32.6495C1390.89 33.9901 1389.75 35.0869 1389.09 35.0869C1388.29 35.0869 1388.3 34.2728 1389.13 32.73C1389.82 31.4333 1390.36 29.9246 1390.33 29.3786C1390.3 28.8314 1389.2 30.4413 1387.87 32.9542C1386.55 35.4683 1384.62 37.5242 1383.6 37.5242C1382.57 37.5242 1382.07 36.9758 1382.48 36.3055C1382.89 35.6353 1382.68 35.0869 1382.01 35.0869C1381.33 35.0869 1379.32 37.0063 1377.53 39.3522C1373.82 44.2318 1372.38 44.5523 1368.88 41.2838C1365.95 38.5491 1362.89 37.9093 1359.01 39.2194C1357.41 39.7568 1355.57 39.6289 1354.72 38.9208C1353.9 38.2384 1351.6 37.8801 1349.61 38.125C1345.36 38.6491 1338.08 36.3799 1338.08 34.5299C1338.08 32.4935 1330.83 29.8173 1324.14 29.3847C1310.85 28.5243 1310.69 28.4877 1311.07 26.2515C1311.49 23.7422 1306.61 23.2352 1304.3 25.5483C1303.24 26.611 1302.11 26.6317 1299.92 25.6299C1298.3 24.889 1295.82 24.5843 1294.41 24.9523C1293.01 25.3204 1291.86 25.073 1291.86 24.4027C1291.86 22.4273 1286.29 21.9434 1283.88 23.7105C1281.1 25.7506 1277.91 25.792 1275.83 23.8141C1274.94 22.9769 1270.66 22.1287 1266.32 21.9288C1261.97 21.7302 1257.18 20.7601 1255.68 19.7718C1254.03 18.6908 1251.73 18.2813 1249.9 18.742C1247.55 19.3318 1246.85 19.0369 1246.85 17.466C1246.85 16.0462 1246.18 15.638 1244.64 16.1279C1243.42 16.5142 1240.27 16.0414 1237.64 15.0774C1235.01 14.1122 1233.29 13.2835 1233.82 13.236C1234.35 13.1897 1233.66 11.9503 1232.3 10.483C1230.94 9.01694 1229.82 7.17672 1229.82 6.39433C1229.82 4.49319 1213.12 4.83077 1209.54 6.80503C1208.08 7.60692 1205.62 8.23088 1204.06 8.19066C1202.51 8.14922 1200.41 8.23943 1199.41 8.38811C1195.24 9.00841 1193.07 8.25769 1193.81 6.44796C1194.21 5.44255 1194.82 3.93505 1195.16 3.0966C1195.95 1.16987 1189.71 0.651945 1187.52 2.4629C1186.35 3.4354 1186.16 3.26111 1186.74 1.74507C1187.74 -0.856802 1186.58 -0.641077 1179.95 3.01374ZM85.2628 28.1099C85.1119 29.5675 83.4442 29.2848 82.9212 27.7139C82.6535 26.9096 83.0915 26.4708 83.8943 26.7389C84.6971 27.007 85.3126 27.6237 85.2628 28.1099ZM341.836 31.4308C341.836 32.1011 342.416 32.6495 343.124 32.6495C343.832 32.6495 344.074 32.1011 343.66 31.4308C343.247 30.7606 342.668 30.2122 342.372 30.2122C342.076 30.2122 341.836 30.7606 341.836 31.4308ZM1395.25 32.6495C1395.25 33.3198 1394.71 33.8682 1394.04 33.8682C1393.37 33.8682 1392.82 33.3198 1392.82 32.6495C1392.82 31.9792 1393.37 31.4308 1394.04 31.4308C1394.71 31.4308 1395.25 31.9792 1395.25 32.6495ZM1400.12 33.2589C1400.12 34.2643 1399.59 35.0869 1398.94 35.0869C1398.29 35.0869 1398.08 34.2643 1398.46 33.2589C1398.85 32.2534 1399.38 31.4308 1399.64 31.4308C1399.9 31.4308 1400.12 32.2534 1400.12 33.2589ZM610.056 35.0869C609.642 35.7571 608.789 36.3055 608.159 36.3055C607.529 36.3055 607.015 35.7571 607.015 35.0869C607.015 34.4166 607.869 33.8682 608.911 33.8682C609.953 33.8682 610.469 34.4166 610.056 35.0869ZM-69.5409 95.6344C-68.6639 95.9866 -67.6141 95.9427 -67.2103 95.5381C-66.8064 95.1335 -67.5241 94.8459 -68.8062 94.8983C-70.2233 94.9568 -70.5116 95.2457 -69.5409 95.6344ZM-81.4533 121.033C-79.1032 123.871 -80.7794 124.405 -83.295 121.62C-84.5102 120.276 -84.9383 119.176 -84.2474 119.176C-83.5577 119.176 -82.2999 120.012 -81.4533 121.033ZM1984.94 171.351C1985.2 172.147 1984.55 172.797 1983.49 172.797C1982.43 172.797 1981.57 171.93 1981.57 170.868C1981.57 168.716 1984.19 169.09 1984.94 171.351ZM1817.35 207.458C1817.35 207.754 1816.8 208.334 1816.13 208.748C1815.46 209.163 1814.92 208.92 1814.92 208.211C1814.92 207.502 1815.46 206.92 1816.13 206.92C1816.8 206.92 1817.35 207.162 1817.35 207.458ZM1617.46 217.158C1617.09 218.132 1617.51 219.531 1618.4 220.267C1619.6 221.267 1620.18 221.157 1620.68 219.837C1621.06 218.863 1620.64 217.464 1619.75 216.728C1618.55 215.729 1617.97 215.839 1617.46 217.158ZM1856.28 227.638C1856.28 228.308 1856.82 228.857 1857.49 228.857C1858.16 228.857 1858.71 228.308 1858.71 227.638C1858.71 226.968 1858.16 226.419 1857.49 226.419C1856.82 226.419 1856.28 226.968 1856.28 227.638ZM-53.5 250.793C-53.5 251.463 -54.0474 252.011 -54.7165 252.011C-55.3855 252.011 -55.9329 251.463 -55.9329 250.793C-55.9329 250.122 -55.3855 249.574 -54.7165 249.574C-54.0474 249.574 -53.5 250.122 -53.5 250.793ZM1532.52 254.995C1532.79 256.384 1532.35 256.97 1531.3 256.62C1530.4 256.321 1529.48 255.097 1529.25 253.903C1528.98 252.513 1529.42 251.927 1530.46 252.277C1531.36 252.577 1532.29 253.8 1532.52 254.995ZM1458.51 263.517C1458.51 264.803 1456.17 265.344 1455.48 264.218C1455.06 263.536 1455.57 262.979 1456.61 262.979C1457.65 262.979 1458.51 263.221 1458.51 263.517ZM1454.86 267.245C1454.86 268.295 1453.76 269.073 1452.28 269.073C1450.12 269.073 1449.94 268.772 1451.21 267.245C1452.04 266.239 1453.2 265.417 1453.79 265.417C1454.38 265.417 1454.86 266.239 1454.86 267.245ZM1368.49 273.338C1368.49 274.344 1368 275.166 1367.41 275.166C1366.81 275.166 1366 274.344 1365.62 273.338C1365.19 272.224 1365.62 271.51 1366.7 271.51C1367.69 271.51 1368.49 272.333 1368.49 273.338ZM1122.93 296.209C1121.72 297.404 1121.59 297.263 1122.25 295.527C1122.7 294.325 1123.38 293.649 1123.76 294.024C1124.13 294.398 1123.76 295.382 1122.93 296.209ZM1174.7 299.769C1174.31 300.74 1174.02 300.451 1173.96 299.032C1173.91 297.747 1174.2 297.028 1174.6 297.433C1175 297.837 1175.05 298.889 1174.7 299.769Z" fill="white"/>
</svg>